<?xml version="1.0" encoding="iso-8859-1"?>
<!-- Uploaded to: SVG Repo, www.svgrepo.com, Generator: SVG Repo Mixer Tools -->
<!DOCTYPE svg PUBLIC "-//W3C//DTD SVG 1.1//EN" "http://www.w3.org/Graphics/SVG/1.1/DTD/svg11.dtd">
<svg fill="#000000" height="800px" width="800px" version="1.1" id="Capa_1" xmlns="http://www.w3.org/2000/svg" xmlns:xlink="http://www.w3.org/1999/xlink" 
	 viewBox="0 0 461.372 461.372" xml:space="preserve">
<g id="XMLID_977_">
	<circle id="XMLID_978_" cx="268.639" cy="88.833" r="34.661"/>
	<path id="XMLID_999_" d="M356.368,0.088c-8.481-0.903-16.075,5.249-16.971,13.725l-7.812,73.865l-38.203,49.665l-69.216,0.117
		l-61.068,4.803l-50.993-19.35c-7.969-3.026-16.881,0.984-19.905,8.954c-3.024,7.969,0.985,16.882,8.954,19.906l54.228,20.578
		c2.121,0.805,4.4,1.136,6.686,0.957l62.098-4.885v110.099L185.846,436.57c-2.612,10.771,4.003,21.621,14.775,24.232
		c1.589,0.385,3.18,0.57,4.745,0.57c9.048,0,17.261-6.162,19.487-15.345l39.439-165.139h8.684c0,0.002,0,0.003,0,0.005v160.411
		c0,11.083,8.985,20.068,20.069,20.068s20.068-8.985,20.068-20.068l-0.364-278.511l45.96-59.748
		c1.737-2.258,2.815-4.953,3.115-7.787l8.271-78.198C370.99,8.583,364.846,0.984,356.368,0.088z"/>
</g>
</svg>